<svg width="83" height="78" viewBox="0 0 83 78" fill="none" xmlns="http://www.w3.org/2000/svg">
<path d="M73.6251 32.4864C73.6251 39.4174 69.2414 47.3527 63.0295 53.5821C56.8173 59.8117 48.9049 64.2069 41.9949 64.2069C34.9283 64.2069 26.6487 63.2576 20.1553 60.5619C13.6657 57.8677 9.07941 53.4917 9.07941 46.6634C9.07941 39.7392 13.777 31.4824 20.3177 24.9234C26.8586 18.3641 35.0916 13.6541 41.9949 13.6541C49.0457 13.6541 56.9964 14.9216 63.1643 17.9312C69.3236 20.9366 73.6251 25.6293 73.6251 32.4864Z" stroke="#FFA0A0"/>
<path d="M65.7611 16.8563C69.3135 22.8077 69.6164 31.8683 67.4752 40.4011C65.3339 48.9342 60.7924 56.7636 54.859 60.3052C48.7912 63.9271 41.1952 67.3554 34.2379 68.3688C27.2846 69.3816 21.1037 67.9747 17.604 62.1115C14.0551 56.1658 13.8569 46.6683 16.1114 37.684C18.366 28.6994 23.0214 20.4353 28.949 16.8972C35.0034 13.2834 42.4799 10.2967 49.3186 9.71971C56.1478 9.1435 62.2466 10.9683 65.7611 16.8563Z" stroke="#00FFB2"/>
<path d="M31.1261 7.64972C38.0082 6.8277 46.4074 10.2394 53.3295 15.6687C60.2519 21.0981 65.5545 28.4334 66.3741 35.2947C67.2122 42.3114 67.2514 50.6451 65.3449 57.4124C63.4395 64.1758 59.6383 69.2487 52.8582 70.0585C45.9828 70.8797 37.2271 67.1945 29.9387 61.4779C22.65 55.7611 16.9968 48.1448 16.178 41.2902C15.3418 34.2892 15.6574 26.2443 17.9142 19.763C20.1679 13.2907 24.3173 8.46298 31.1261 7.64972Z" stroke="#8BBAFF"/>
<circle cx="40.984" cy="38.9305" r="25.2764" fill="white" stroke="url(#paint0_linear_0_460)"/>
<defs>
<linearGradient id="paint0_linear_0_460" x1="15.2076" y1="13.1541" x2="66.7604" y2="71.3352" gradientUnits="userSpaceOnUse">
<stop stop-color="#FFA0A0"/>
<stop offset="0.453125" stop-color="#8BBAFF"/>
<stop offset="1" stop-color="#00FFB2"/>
</linearGradient>
</defs>
</svg>
